<svg xmlns="http://www.w3.org/2000/svg" viewBox="0 0 123.32 25.75"><defs><style>.cls-1{fill:#fff;fill-rule:evenodd;}</style></defs><g id="Layer_2" data-name="Layer 2"><g id="Layer_2-2" data-name="Layer 2"><path class="cls-1" d="M83.79,11.65a2,2,0,0,0-.77.15,1.81,1.81,0,0,0-.6.42,1.94,1.94,0,0,0-.38.64,2.45,2.45,0,0,0-.14.83v.1h3.63v-.15a2.13,2.13,0,0,0-.46-1.44A1.58,1.58,0,0,0,83.79,11.65Z"/><path class="cls-1" d="M54.41,11.65a2,2,0,0,0-.78.15,1.81,1.81,0,0,0-.6.42,1.94,1.94,0,0,0-.38.64,2.45,2.45,0,0,0-.13.83v.1h3.63v-.15a2.13,2.13,0,0,0-.47-1.44A1.56,1.56,0,0,0,54.41,11.65Z"/><path class="cls-1" d="M45.87,11.78a2.13,2.13,0,0,0-1.26.37,1.15,1.15,0,0,0-.51,1v2.67a1.12,1.12,0,0,0,.51,1,2.07,2.07,0,0,0,1.26.37,1.77,1.77,0,0,0,1.37-.55,2,2,0,0,0,.51-1.44V13.78a2.05,2.05,0,0,0-.51-1.45A1.81,1.81,0,0,0,45.87,11.78Z"/><path class="cls-1" d="M35.33,16v.27a.89.89,0,0,0,.36.78,1.52,1.52,0,0,0,1,.27A2.23,2.23,0,0,0,37.91,17a1.06,1.06,0,0,0,.5-.91V14.92H37C35.9,14.92,35.33,15.27,35.33,16Z"/><path class="cls-1" d="M110.44,0H12.81A12.86,12.86,0,0,0,.09,11l10,1.68V7.13h10.8V13.3a5.16,5.16,0,0,1-5.16,5.16h-.48A5.16,5.16,0,0,1,14,18.29h-.11L0,14.17A12.88,12.88,0,0,0,12.81,25.75h97.63a12.88,12.88,0,1,0,0-25.75ZM32.6,18.35h-6V7.89h1.7v9H32.6Zm8.27,0H40A1.28,1.28,0,0,1,39,18a1.61,1.61,0,0,1-.42-.93h-.07a1.93,1.93,0,0,1-.83,1.11,2.67,2.67,0,0,1-1.45.37,2.6,2.6,0,0,1-1.87-.63,2.25,2.25,0,0,1-.65-1.69,2,2,0,0,1,.85-1.76A4.35,4.35,0,0,1,37,13.87h1.41v-.66A1.5,1.5,0,0,0,38,12.1a1.67,1.67,0,0,0-1.22-.39,1.92,1.92,0,0,0-1.12.3,2.68,2.68,0,0,0-.74.76l-1-.88a3.16,3.16,0,0,1,1.09-1.09,3.59,3.59,0,0,1,1.85-.43,3.42,3.42,0,0,1,2.32.71,2.53,2.53,0,0,1,.81,2V17h.83Zm7.79-.89a2.71,2.71,0,0,1-2.29,1.07A2.39,2.39,0,0,1,45,18.14a2.2,2.2,0,0,1-.83-1.08H44.1v1.29H42.47V7.26H44.1v4.58h.08A2.11,2.11,0,0,1,45,10.76a2.39,2.39,0,0,1,1.36-.39,2.69,2.69,0,0,1,2.29,1.08,4.87,4.87,0,0,1,.81,3A4.92,4.92,0,0,1,48.66,17.46Zm9.21-2.59H52.52v.26a2,2,0,0,0,.53,1.46,1.94,1.94,0,0,0,1.52.58,2.18,2.18,0,0,0,1.21-.32,2.63,2.63,0,0,0,.84-.85l1,.95a3.06,3.06,0,0,1-1.26,1.15,4,4,0,0,1-1.91.43,3.75,3.75,0,0,1-1.5-.28,3.2,3.2,0,0,1-1.13-.82,3.67,3.67,0,0,1-.71-1.29,5.31,5.31,0,0,1-.25-1.69,5.2,5.2,0,0,1,.25-1.68,3.5,3.5,0,0,1,.71-1.29,3.08,3.08,0,0,1,1.13-.82,3.75,3.75,0,0,1,1.5-.29,3.52,3.52,0,0,1,1.5.3,2.93,2.93,0,0,1,1.09.84,3.45,3.45,0,0,1,.65,1.23,5,5,0,0,1,.22,1.52Zm4.53,3.48h-1a1.63,1.63,0,0,1-1.25-.43,1.61,1.61,0,0,1-.42-1.19V7.26h1.64V17H62.4Zm11.89-1.74a2.92,2.92,0,0,1-.74,1,3.65,3.65,0,0,1-1.2.66,5.23,5.23,0,0,1-1.6.23,4.62,4.62,0,0,1-3.82-1.77l1.17-1.09a3.76,3.76,0,0,0,1.22,1,3.24,3.24,0,0,0,1.52.34,2.21,2.21,0,0,0,1.51-.45,1.53,1.53,0,0,0,.51-1.21,1.33,1.33,0,0,0-.36-1,2.47,2.47,0,0,0-1.27-.54l-.93-.16a4.47,4.47,0,0,1-2.29-1,2.59,2.59,0,0,1-.77-2,3,3,0,0,1,.26-1.25,2.62,2.62,0,0,1,.74-.94,3.35,3.35,0,0,1,1.14-.6A5.47,5.47,0,0,1,70.9,7.7a4.66,4.66,0,0,1,2,.42,4.08,4.08,0,0,1,1.49,1.19l-1.19,1a3.08,3.08,0,0,0-1-.84,3,3,0,0,0-1.45-.32,2.36,2.36,0,0,0-1.4.36,1.21,1.21,0,0,0-.49,1,1.2,1.2,0,0,0,.4,1,3,3,0,0,0,1.26.48l.93.2a4.36,4.36,0,0,1,2.3,1,2.64,2.64,0,0,1,.73,2A3.35,3.35,0,0,1,74.29,16.61Zm4.89,1.74H78.13a1.67,1.67,0,0,1-1.26-.43,1.65,1.65,0,0,1-.41-1.19V7.26H78.1V17h1.08Zm8.08-3.48H81.9v.26a2,2,0,0,0,.54,1.46,1.94,1.94,0,0,0,1.52.58,2.2,2.2,0,0,0,1.21-.32A2.73,2.73,0,0,0,86,16L87,17a3.06,3.06,0,0,1-1.26,1.15,4.06,4.06,0,0,1-1.92.43,3.75,3.75,0,0,1-1.5-.28,3.16,3.16,0,0,1-1.12-.82,3.67,3.67,0,0,1-.71-1.29,5.31,5.31,0,0,1-.25-1.69,5.2,5.2,0,0,1,.25-1.68,3.5,3.5,0,0,1,.71-1.29,3,3,0,0,1,1.12-.82,3.75,3.75,0,0,1,1.5-.29,3.57,3.57,0,0,1,1.51.3,2.93,2.93,0,0,1,1.09.84A3.45,3.45,0,0,1,87,12.74a5,5,0,0,1,.22,1.52Zm8.17,3.48H93.79V17.06h-.06a3.2,3.2,0,0,1-.27.56,2,2,0,0,1-.44.47,2.07,2.07,0,0,1-.63.32,2.7,2.7,0,0,1-.84.12,2.37,2.37,0,0,1-1.89-.78A3.35,3.35,0,0,1,89,15.52v-5h1.63v4.76c0,1.21.5,1.81,1.5,1.81a2.49,2.49,0,0,0,.61-.08,1.91,1.91,0,0,0,.54-.25,1.25,1.25,0,0,0,.37-.42,1.16,1.16,0,0,0,.14-.6V10.55h1.64Zm6-6.46H99.84V17h1.51v1.33H99.93a1.75,1.75,0,0,1-1.29-.44,1.72,1.72,0,0,1-.44-1.25V11.89H97V10.55h.66a.71.71,0,0,0,.56-.18.84.84,0,0,0,.16-.58V8.42h1.47v2.13h1.63Zm8.2,6.46H108V13.6c0-1.21-.49-1.82-1.47-1.82a2.16,2.16,0,0,0-.62.09,1.61,1.61,0,0,0-.55.24,1.18,1.18,0,0,0-.38.42,1.15,1.15,0,0,0-.14.59v5.23h-1.64V7.26h1.64v4.58H105a2.61,2.61,0,0,1,.77-1.05,2.2,2.2,0,0,1,1.42-.42,2.34,2.34,0,0,1,1.87.79,3.4,3.4,0,0,1,.66,2.24Z"/></g></g></svg>