<?xml version="1.0" encoding="UTF-8"?>
<svg width="36px" height="36px" viewBox="0 0 36 36" version="1.1" xmlns="http://www.w3.org/2000/svg" xmlns:xlink="http://www.w3.org/1999/xlink">
    <title>Combined Shape</title>
    <g id="Page-1" stroke="none" stroke-width="1" fill="none" fill-rule="evenodd">
        <g id="Single-page---Green" transform="translate(-389.000000, -393.000000)" fill="#FFFFFF">
            <g id="Cover-text" transform="translate(144.000000, 114.000000)">
                <g id="watch-a-video" transform="translate(245.000000, 279.000000)">
                    <path d="M18,0 C27.9411255,0 36,8.0588745 36,18 C36,27.9411255 27.9411255,36 18,36 C8.0588745,36 0,27.9411255 0,18 C0,8.0588745 8.0588745,0 18,0 Z M21.78125,11.9375 L10.625,11.9375 C9.90012627,11.9375 9.3125,12.5251263 9.3125,13.25 L9.3125,13.25 L9.3125,23.75 C9.3125,24.4748737 9.90012627,25.0625 10.625,25.0625 L10.625,25.0625 L21.78125,25.0625 C22.5061237,25.0625 23.09375,24.4748737 23.09375,23.75 L23.09375,23.75 L23.09375,21.085625 L26.650625,23.6253125 C26.8502868,23.7674739 27.1125299,23.7865224 27.3306397,23.6747066 C27.5487496,23.5628908 27.6863703,23.3388488 27.6875,23.09375 L27.6875,23.09375 L27.6875,13.90625 C27.6863703,13.6611512 27.5487496,13.4371092 27.3306397,13.3252934 C27.1125299,13.2134776 26.8502868,13.2325261 26.650625,13.3746875 L26.650625,13.3746875 L23.09375,15.914375 L23.09375,13.25 C23.09375,12.5251263 22.5061237,11.9375 21.78125,11.9375 L21.78125,11.9375 Z" id="Combined-Shape"></path>
                </g>
            </g>
        </g>
    </g>
</svg>